{"title":"Peter.Pan.II..Neverland.2002.1080p.BluRay.x264-PSYCHD","uid":11996931,"size":4693771058,"categoryP":"video","categoryS":"hd___movies","magnet":"?xt=urn:btih:0593e7b6de1e364ae14acd753fb674fe7d16fa02&amp;dn=Peter.Pan.II..Neverland.2002.1080p.BluRay.x264-PSYCHD&amp;tr=udp%3A%2F%2Ftracker.openbittorrent.com%3A80&amp;tr=udp%3A%2F%2Fopen.demonii.com%3A1337&amp;tr=udp%3A%2F%2Ftracker.coppersurfer.tk%3A6969&amp;tr=udp%3A%2F%2Fexodus.desync.com%3A6969","seeders":0,"leechers":1,"uploader":"vickey1992","files":3,"time":1433686010,"description":"\n\n\nDate..............: 31/10/2012\n\nIMDB..............: http://www.imdb.com/title/tt0280030/\n\nRatings...........: 5.6/10   6,378 votes\n\nRuntime...........: 01:12:32\n\nVideo.............: 1840x1080 / 23.976fps\n\nAudio.............: DTS 1509\n\nSize..............: 4480mb\n\nVideo\nID                                       : 1\nFormat                                   : AVC\nFormat/Info                              : Advanced Video Codec\nFormat profile                           : &lt;a class=&quot;__cf_email__&quot; href=&quot;/cdn-cgi/l/email-protection&quot; data-cfemail=&quot;5911303e3119156d7768&quot;&gt;[email&amp;#160;protected]&lt;/a&gt;&lt;script data-cfhash='f9e31' type=&quot;text/javascript&quot;&gt;\n/* &lt;![CDATA[ */!function(){try{var t=&quot;currentScript&quot;in document?document.currentScript:function(){for(var t=document.getElementsByTagName(&quot;script&quot;),e=t.length;e--;)if(t[e].getAttribute(&quot;data-cfhash&quot;))return t[e]}();if(t&amp;&amp;t.previousSibling){var e,r,n,i,c=t.previousSibling,a=c.getAttribute(&quot;data-cfemail&quot;);if(a){for(e=&quot;&quot;,r=parseInt(a.substr(0,2),16),n=2;a.length-n;n+=2)i=parseInt(a.substr(n,2),16)^r,e+=String.fromCharCode(i);e=document.createTextNode(e),c.parentNode.replaceChild(e,c)}t.parentNode.removeChild(t);}}catch(u){}}()/* ]]&gt; */&lt;/script&gt;\nFormat settings, CABAC                   : Yes\nFormat settings, ReFrames                : 4 frames\nCodec ID                                 : V_MPEG4/ISO/AVC\nDuration                                 : 1h 12mn\nBit rate                                 : 7 116 Kbps\nWidth                                    : 1 840 pixels\nHeight                                   : 1 080 pixels\nDisplay aspect ratio                     : 1.704\nFrame rate mode                          : Constant\nFrame rate                               : 23.976 fps\nColor space                              : YUV\nChroma subsampling                       : 4:2:0\nBit depth                                : 8 bits\nScan type                                : Progressive\nBits/(Pixel*Frame)                       : 0.149\nStream size                              : 3.52 GiB (81%)\nWriting library                          : x264 core 128 r2216 198a7ea\nEncoding settings                        : cabac=1 / ref=4 / deblock=1:0:0 / analyse=0x3:0x113 / me=umh / subme=8 / psy=1 / psy_rd=1.00:0.00 / mixed_ref=1 / me_range=16 / chroma_me=1 / trellis=1 / 8x8dct=1 / cqm=0 / deadzone=21,11 / fast_pskip=1 / chroma_qp_offset=-2 / threads=12 / lookahead_threads=2 / sliced_threads=0 / nr=0 / decimate=1 / interlaced=0 / bluray_compat=0 / constrained_intra=0 / bframes=3 / b_pyramid=2 / b_adapt=2 / b_bias=0 / direct=3 / weightb=1 / open_gop=0 / weightp=2 / keyint=240 / keyint_min=24 / scenecut=40 / intra_refresh=0 / rc_lookahead=50 / rc=2pass / mbtree=1 / bitrate=7116 / ratetol=1.0 / qcomp=0.60 / qpmin=0 / qpmax=69 / qpstep=4 / cplxblur=20.0 / qblur=0.5 / ip_ratio=1.40 / aq=1:1.00\nLanguage                                 : English\nDefault                                  : Yes\nForced                                   : No\n\nAudio\nID                                       : 2\nFormat                                   : DTS\nFormat/Info                              : Digital Theater Systems\nMode                                     : 16\nFormat settings, Endianness              : Big\nCodec ID                                 : A_DTS\nDuration                                 : 1h 12mn\nBit rate mode                            : Constant\nBit rate                                 : 1 509 Kbps\nChannel(s)                               : 6 channels\nChannel positions                        : Front: L C R, Side: L R, LFE\nSampling rate                            : 48.0 KHz\nBit depth                                : 24 bits\nCompression mode                         : Lossy\nStream size                              : 783 MiB (17%)\nLanguage                                 : English\nDefault                                  : Yes\nForced                                   : No\n\nText\nID                                       : 3\nFormat                                   : UTF-8\nCodec ID                                 : S_TEXT/UTF8\nCodec ID/Info                            : UTF-8 Plain Text\nLanguage                                 : English\nDefault                                  : No\nForced                                   : No\n\nMenu\n00:00:00.000                             : en:00:00:00.000\n00:03:12.275                             : en:00:03:12.275\n00:09:41.080                             : en:00:09:41.080\n00:12:26.329                             : en:00:12:26.329\n00:14:39.378                             : en:00:14:39.378\n00:17:47.191                             : en:00:17:47.191\n00:22:40.317                             : en:00:22:40.317\n00:23:25.696                             : en:00:23:25.696\n00:27:40.909                             : en:00:27:40.909\n00:30:16.898                             : en:00:30:16.898\n00:33:26.963                             : en:00:33:26.963\n00:35:45.894                             : en:00:35:45.894\n00:37:25.452                             : en:00:37:25.452\n00:39:00.547                             : en:00:39:00.547\n00:40:17.874                             : en:00:40:17.874\n00:43:46.374                             : en:00:43:46.374\n00:44:29.417                             : en:00:44:29.417\n00:46:53.144                             : en:00:46:53.144\n00:48:57.143                             : en:00:48:57.143\n00:50:42.414                             : en:00:50:42.414\n00:55:59.731                             : en:00:55:59.731\n00:57:26.693                             : en:00:57:26.693\n00:59:14.509                             : en:00:59:14.509\n01:01:24.639                             : en:01:01:24.639\n01:02:42.008                             : en:01:02:42.008\n01:04:58.269                             : en:01:04:58.269","torrent":{"xt":"urn:btih:0593e7b6de1e364ae14acd753fb674fe7d16fa02","amp;dn":"Peter.Pan.II..Neverland.2002.1080p.BluRay.x264-PSYCHD","amp;tr":["udp%3A%2F%2Ftracker.openbittorrent.com%3A80","udp%3A%2F%2Fopen.demonii.com%3A1337","udp%3A%2F%2Ftracker.coppersurfer.tk%3A6969","udp%3A%2F%2Fexodus.desync.com%3A6969"],"infoHash":"0593e7b6de1e364ae14acd753fb674fe7d16fa02","infoHashBuffer":{"type":"Buffer","data":[5,147,231,182,222,30,54,74,225,74,205,117,63,182,116,254,125,22,250,2]},"announce":[],"urlList":[]}}